Coordinates
version=1
nRows=11
nColumns=36
inDegrees=yes

Units are S.I. units (second, meters, Newtons, ...)
If the header above contains a line with 'inDegrees', this indicates whether rotational values are in degrees (yes) or radians (no).

endheader
time	pelvis_tilt	pelvis_list	pelvis_rotation	pelvis_tx	pelvis_ty	pelvis_tz	hip_flexion_r	hip_adduction_r	hip_rotation_r	knee_angle_r	knee_angle_r_beta	ankle_angle_r	subtalar_angle_r	mtp_angle_r	hip_flexion_l	hip_adduction_l	hip_rotation_l	knee_angle_l	knee_angle_l_beta	ankle_angle_l	subtalar_angle_l	mtp_angle_l	lumbar_extension	lumbar_bending	lumbar_rotation	arm_flex_r	arm_add_r	arm_rot_r	elbow_flex_r	pro_sup_r	arm_flex_l	arm_add_l	arm_rot_l	elbow_flex_l	pro_sup_l
     44.73333330	      3.91299411	      5.02514903	    185.10283964	      0.65976305	      1.07939542	      0.87002085	     30.30715140	     -3.04330132	     -6.55648190	     33.50037681	      0.58469188	     -3.98028510	     -1.80252542	     -7.49999987	     29.97288318	     -9.13895768	     -6.52540472	     32.95000125	      0.57508601	     -7.91120163	     -3.29538890	     -7.49999987	    -17.73907966	      7.03666940	      1.90621616	     17.97936833	     -6.85545747	     -2.07655625	     20.83341153	     84.45219580	     17.13328791	     -1.68624810	      6.52769429	     24.97156344	     82.18343395
     44.75000000	      4.09267190	      5.56119294	    185.18239995	      0.66037410	      1.07953780	      0.87055264	     28.98598589	     -2.58287194	     -6.11198617	     30.19147670	      0.52694067	     -3.30251607	      0.17104119	     -7.49999987	     29.48014875	    -10.19231462	     -6.41520169	     30.70119718	      0.53583698	     -7.19568421	     -2.28302228	     -7.49999987	    -17.73676282	      7.65378621	      1.80329266	     17.77142662	     -6.06801212	     -2.05867209	     20.71159246	     84.73096692	     17.47363943	     -0.91430597	      6.40925282	     24.85259370	     82.20734789
     44.76666670	      4.11838383	      5.96420876	    185.52670368	      0.66059691	      1.07580862	      0.87062756	     27.32584257	     -2.07346497	     -5.40290612	     27.24510278	      0.47551675	     -1.80492574	      1.55722448	     -7.49999987	     28.92395283	    -11.08271356	     -5.90635734	     28.39933063	      0.49566182	     -6.22320895	     -1.08431670	     -7.49999987	    -17.56747801	      8.04665772	      1.41376035	     17.34757752	     -5.23913494	     -2.06430024	     20.05416817	     85.88228483	     17.88779030	     -0.30575817	      6.18549385	     24.37020994	     82.98979894
     44.78333330	      4.09954124	      6.31807311	    186.10315757	      0.66169579	      1.06917378	      0.87030146	     26.16078696	     -1.70856456	     -4.67793611	     25.50476810	      0.44514218	     -0.11580709	      2.27730110	     -7.49999987	     28.73102515	    -11.88532118	     -4.78057974	     26.66753562	      0.46543630	     -4.60455610	     -0.07036565	     -7.49999987	    -17.50464059	      8.27130857	      0.93015864	     16.87173790	     -4.41098707	     -2.29982199	     19.73431108	     86.61971279	     18.25749910	      0.11648330	      5.67963019	     24.23079136	     83.34566653
     44.80000000	      4.25215117	      6.70893324	    186.63719483	      0.66247205	      1.06176174	      0.86939472	     25.70351600	     -1.35485645	     -3.84432359	     24.86834094	      0.43403443	      2.06014837	      2.35981244	     -7.49999987	     28.86173195	    -12.71653570	     -3.35470741	     25.52322883	      0.44546438	     -2.96438530	      0.77394262	     -7.49999987	    -17.23362729	      8.47709231	      0.47319837	     16.48679879	     -3.50326733	     -2.38166149	     19.39281704	     87.02968525	     18.69213633	      0.52578125	      5.27376923	     24.08310223	     83.48952030
     44.81666670	      4.39892871	      6.91262439	    187.32475340	      0.66220726	      1.05633745	      0.86792392	     25.38126992	     -1.28964436	     -3.30778652	     24.70843611	      0.43124356	      4.22557632	      2.45069379	     -7.49999987	     29.23674860	    -13.27284438	     -1.41353944	     25.21679548	      0.44011611	     -1.81518413	      1.26534626	     -7.49999987	    -16.96169669	      8.48520420	     -0.32145582	     16.32405251	     -2.60901399	     -2.26797443	     19.02831482	     85.56667779	     19.13949758	      0.67534338	      4.68166901	     23.82715332	     81.78508771
     44.83333330	      4.67408071	      6.72983974	    188.03625553	      0.66119385	      1.05570738	      0.86673600	     25.27719964	     -1.62158741	     -2.72564242	     24.87378893	      0.43412951	      6.23038214	      2.84258205	     -7.49999987	     29.73811489	    -13.33860108	      0.60210531	     25.55067066	      0.44594333	      0.04778919	      1.88563182	     -7.49999987	    -16.74956647	      7.91096043	     -0.96513503	     16.09582189	     -1.76914102	     -2.17635234	     18.77243648	     85.69515524	     19.79208415	      0.68036454	      4.46957637	     23.52861979	     81.77900434
     44.85000000	      4.94199738	      6.40062537	    188.53297433	      0.65954240	      1.05755808	      0.86689690	     24.90172047	     -2.00111713	     -1.95302827	     24.63311707	      0.42992900	      7.69539131	      3.01852632	     -7.49999987	     29.92201543	    -13.12063653	      2.62872308	     26.05923413	      0.45481944	      1.89328743	      2.03499969	     -7.49999987	    -16.52823641	      7.24278764	     -1.37394503	     15.81204426	     -1.11660249	     -2.15152607	     18.65614704	     85.67923956	     20.23804868	      0.55998591	      4.34940164	     23.44602284	     81.71743672
     44.86666670	      5.27710970	      6.26270515	    189.43887112	      0.65755360	      1.05899663	      0.86820747	     24.48181758	     -2.57473836	     -2.35048351	     24.37313488	      0.42539145	      9.20650261	      4.76662868	     -7.49999987	     30.37074666	    -12.76071394	      4.89088033	     26.88069595	      0.46915665	      4.08005307	      2.36863535	     -7.49999987	    -16.15184518	      7.03818448	     -2.66863082	     15.98076509	     -0.29901956	     -2.37011048	     17.75545413	     85.81914590	     20.74693115	      0.34995267	      4.08559811	     22.46607798	     81.73577071
     44.88333330	      5.53826177	      6.30143405	    190.03050571	      0.65499779	      1.05830108	      0.86869236	     24.02498152	     -2.78992475	     -2.29171201	     24.21902183	      0.42270167	     10.06967583	      5.56190847	     -7.49999987	     30.67576465	    -12.72555445	      6.64091090	     27.78406933	      0.48492349	      5.98377123	      2.24471156	     -7.49999987	    -15.99185218	      6.94425060	     -3.22388736	     15.93201993	      0.20925405	     -2.54402012	     17.19956972	     85.87331473	     21.08191968	      0.31824956	      4.01613623	     22.19668616	     81.74112788
     44.90000000	      5.85276060	      6.71335756	    190.47312726	      0.65237735	      1.05177218	      0.86996179	     24.05919909	     -2.74181121	     -2.32610546	     24.85892788	      0.43387014	     10.84564654	      6.40835962	     -7.49999987	     31.22072572	    -13.07920375	      8.06092865	     29.05619917	      0.50712634	      7.77273769	      2.08376778	     -7.49999987	    -15.67395501	      7.31915760	     -3.78115659	     16.03299024	      0.60940597	     -2.90290884	     16.54110401	     85.40765780	     21.25283447	      0.26555005	      4.16698958	     21.92389701	     81.29002456
